<svg width="149" height="44" viewBox="0 0 149 44" fill="none" xmlns="http://www.w3.org/2000/svg">
<path fill-rule="evenodd" clip-rule="evenodd" d="M37.5686 34.8005C37.1469 36.3632 36.543 37.1745 34.5954 37.624C30.2808 38.4491 25.9685 38.6565 21.6653 38.6565C17.3622 38.6565 13.0407 38.4468 8.72837 37.6217C6.78079 37.1722 6.17693 36.3609 5.75515 34.7982C4.90006 30.4191 4.6834 26.0399 4.6834 21.6607C4.6834 17.2816 4.90006 12.9024 5.75515 8.52324C6.17693 6.96057 6.78079 6.14927 8.72837 5.69983C13.0407 4.87701 17.353 4.66497 21.6653 4.66497C25.9777 4.66497 30.29 4.87701 34.6023 5.69983C36.5499 6.14927 37.1538 6.96057 37.5756 8.52324C38.4306 12.9024 38.6473 17.2816 38.6473 21.6607C38.6473 26.0399 38.4306 30.4191 37.5756 34.7982L37.5686 34.8005ZM43.3146 21.6469C43.3117 16.9749 42.8936 12.3123 42.0654 7.71425C41.7826 6.1379 41.0337 4.68254 39.9153 3.53623C38.797 2.38991 37.3605 1.60531 35.7916 1.28379C31.1385 0.433826 26.4185 0.00416387 21.6884 0H21.6285C16.8984 0.00416387 12.1783 0.433826 7.52525 1.28379C5.95635 1.60531 4.51992 2.38991 3.40154 3.53623C2.28317 4.68254 1.53424 6.1379 1.25152 7.71425C0.422454 12.3122 0.00363327 16.9748 0 21.6469V21.6861C0.00286982 26.3589 0.420918 31.0222 1.24921 35.6211C1.53205 37.1971 2.28107 38.6521 3.39947 39.7981C4.51786 40.944 5.95423 41.7281 7.52295 42.0492C12.1759 42.8999 16.896 43.3304 21.6262 43.3353H21.6861C26.4162 43.3323 31.1364 42.9026 35.7893 42.0515C37.358 41.7305 38.7944 40.9463 39.9128 39.8004C41.0312 38.6544 41.7802 37.1994 42.063 35.6234C42.8912 31.0245 43.3093 26.3612 43.3123 21.6884V21.6492L43.3146 21.6469Z" fill="white"/>
<path fill-rule="evenodd" clip-rule="evenodd" d="M32.662 28.8956L25.5056 21.6861L28.7162 18.4593C28.959 18.2853 29.1709 18.0719 29.3431 17.8278L32.019 15.1335C32.692 14.4858 33.2267 13.8382 33.2267 12.9047C33.2267 12.1985 32.9463 11.5211 32.4472 11.0215C31.948 10.5219 31.2709 10.241 30.5646 10.2403C29.728 10.2403 29.0458 10.6598 28.4903 11.1784L28.4742 11.2038L25.0861 14.6172L25.0722 14.6034L21.7671 17.9131L18.4666 14.5942L18.4551 14.608L15.067 11.1945L15.0509 11.1784C14.3917 10.5538 13.8063 10.2311 12.9765 10.2311C12.2703 10.2317 11.5932 10.5127 11.094 11.0123C10.5948 11.5119 10.3145 12.1893 10.3145 12.8955C10.3145 13.8174 10.9022 14.4559 11.5222 15.1243L14.1958 17.8186C14.3688 18.0627 14.5815 18.2762 14.825 18.4501L18.0356 21.6769L10.8768 28.8864V28.8725C10.5026 29.3649 10.3053 29.969 10.3168 30.5873C10.3168 30.9371 10.3857 31.2835 10.5196 31.6066C10.6535 31.9297 10.8498 32.2233 11.0973 32.4705C11.3447 32.7177 11.6385 32.9138 11.9617 33.0474C12.2849 33.1811 12.6314 33.2497 12.9811 33.2494C13.9192 33.2494 14.5945 32.7193 15.2168 32.0278L17.7798 29.4464C18.1163 29.2389 18.4028 28.9595 18.6187 28.6282L21.7787 25.443L24.9386 28.6282C25.1545 28.9595 25.441 29.2389 25.7775 29.4464L28.3405 32.0278C28.9305 32.6133 29.6381 33.2494 30.5762 33.2494C31.0775 33.2403 31.5664 33.0926 31.9889 32.8227C32.4114 32.5527 32.7509 32.171 32.9698 31.72C33.1886 31.2689 33.2783 30.766 33.2289 30.2671C33.1794 29.7682 32.9928 29.2927 32.6897 28.8933H32.6736L32.662 28.8956ZM148.952 31.6867C148.929 31.4705 148.878 31.2582 148.8 31.0552C148.75 30.9168 148.663 30.7948 148.549 30.7026C148.453 30.6314 148.338 30.5926 148.219 30.5919H137.177V23.2764H146.716C146.834 23.2769 146.949 23.2415 147.046 23.175C147.16 23.0922 147.248 22.9776 147.297 22.8454C147.375 22.6497 147.425 22.4442 147.447 22.2346C147.515 21.598 147.515 20.956 147.447 20.3193C147.426 20.106 147.376 19.8965 147.297 19.697C147.245 19.5631 147.158 19.4455 147.046 19.3559C146.951 19.2845 146.835 19.2464 146.716 19.2476H137.177V12.9116H148.138C148.255 12.9131 148.369 12.874 148.461 12.801C148.566 12.7051 148.645 12.5847 148.692 12.4507C148.769 12.2477 148.819 12.0353 148.841 11.8191C148.877 11.5032 148.894 11.1853 148.892 10.8673C148.895 10.5354 148.878 10.2037 148.841 9.87387C148.818 9.65486 148.768 9.43959 148.692 9.23313C148.648 9.09764 148.568 8.97655 148.461 8.8828C148.367 8.81542 148.254 8.77988 148.138 8.78139H133.489C133.082 8.76987 132.686 8.90946 132.376 9.17321C132.076 9.43365 131.915 9.86466 131.915 10.4455V33.0581C131.915 33.6481 132.067 34.0722 132.376 34.3327C132.686 34.5958 133.082 34.7346 133.489 34.7222H148.219C148.338 34.7225 148.454 34.6837 148.549 34.6116C148.664 34.5207 148.751 34.3993 148.8 34.2612C148.877 34.0581 148.929 33.8459 148.952 33.6297C149.016 32.9837 149.016 32.3328 148.952 31.6867ZM123.387 10.7843C123.109 10.5311 122.799 10.3157 122.465 10.1435C121.933 9.8595 121.375 9.62793 120.799 9.45209C120.03 9.21418 119.246 9.03163 118.452 8.90585C117.466 8.75343 116.47 8.68251 115.472 8.69381C113.629 8.67086 111.798 8.98325 110.067 9.61573C108.513 10.1856 107.102 11.086 105.93 12.2548C104.759 13.4468 103.856 14.8744 103.28 16.4426C102.631 18.217 102.311 20.0945 102.335 21.9834C102.306 23.8098 102.603 25.6266 103.21 27.3491C103.742 28.8626 104.609 30.2361 105.748 31.3662C106.886 32.4963 108.266 33.3537 109.784 33.874C111.524 34.4754 113.357 34.7679 115.198 34.7383C115.889 34.7383 116.581 34.7061 117.251 34.6392C117.922 34.5724 118.609 34.4779 119.277 34.3488C119.946 34.2197 120.591 34.063 121.216 33.8878C121.84 33.7127 122.368 33.5306 122.783 33.3623C123.141 33.2479 123.441 33.0004 123.622 32.6709C123.764 32.3487 123.833 31.9994 123.825 31.6476V21.2758C123.829 21.0417 123.796 20.8085 123.728 20.5844C123.67 20.3948 123.573 20.2191 123.444 20.0681C123.328 19.9298 123.181 19.8202 123.016 19.7477C122.841 19.6732 122.653 19.6363 122.463 19.6394H113.951C113.838 19.6382 113.728 19.6765 113.64 19.7477C113.538 19.8375 113.459 19.9506 113.409 20.0773C113.334 20.2681 113.286 20.4681 113.264 20.672C113.228 20.9779 113.212 21.2859 113.216 21.5939C113.187 22.0987 113.252 22.6045 113.409 23.0851C113.541 23.3755 113.723 23.523 113.955 23.523H118.726V29.7046C118.236 29.9686 117.712 30.1655 117.168 30.29C116.613 30.4188 116.045 30.4838 115.474 30.4836C114.381 30.4966 113.294 30.305 112.271 29.9189C111.326 29.5569 110.477 28.9838 109.788 28.2433C109.064 27.4481 108.514 26.5098 108.175 25.4891C107.771 24.2611 107.576 22.974 107.599 21.6815C107.585 20.4606 107.776 19.246 108.163 18.0883C108.508 17.0602 109.057 16.1124 109.777 15.3017C110.481 14.5272 111.347 13.916 112.312 13.5109C113.362 13.0772 114.489 12.8623 115.624 12.8794C116.638 12.8631 117.649 12.9809 118.632 13.2297C119.393 13.4274 120.137 13.6809 120.861 13.988C121.378 14.2062 121.879 14.4603 122.361 14.7486C122.603 14.9278 122.883 15.0478 123.179 15.0989C123.288 15.1015 123.394 15.0674 123.481 15.0021C123.583 14.9105 123.657 14.7924 123.696 14.661C123.765 14.4493 123.811 14.2306 123.832 14.0087C123.867 13.685 123.884 13.3595 123.882 13.0338C123.895 12.5409 123.855 12.048 123.765 11.5633C123.71 11.2771 123.579 11.011 123.385 10.7935L123.387 10.7843ZM81.6395 24.7584L85.2789 13.8151H85.2996L88.9412 24.7584H81.6395ZM89.1602 9.87387C89.0995 9.65969 89.002 9.4577 88.8721 9.27693C88.7265 9.11147 88.5319 8.99681 88.3166 8.94964C87.961 8.86324 87.597 8.81609 87.2311 8.80905C86.7701 8.79061 86.1432 8.77908 85.3595 8.77908C84.6842 8.77908 84.1403 8.77908 83.7277 8.80905C83.402 8.81626 83.0785 8.86348 82.7643 8.94964C82.5659 8.99928 82.3883 9.11066 82.2572 9.26771C82.1351 9.43335 82.0409 9.61787 81.9784 9.81395L74.0382 32.664C73.9069 33.0258 73.8066 33.3983 73.7386 33.7772C73.7135 33.8889 73.713 34.0047 73.7373 34.1166C73.7616 34.2284 73.81 34.3337 73.8792 34.4249C74.0751 34.605 74.33 34.7074 74.596 34.713C75.0716 34.7596 75.5495 34.7796 76.0273 34.7729C76.5989 34.7729 77.0599 34.7598 77.4102 34.7337C77.6877 34.7213 77.9623 34.6709 78.2261 34.5839C78.3931 34.53 78.5395 34.4263 78.6456 34.2866C78.7379 34.1444 78.8079 33.989 78.853 33.8256L80.4848 28.7919H90.1651L91.896 33.9639C91.9382 34.1138 92.0052 34.2556 92.0942 34.3834C92.2048 34.5075 92.3515 34.5938 92.5137 34.63C92.7962 34.7031 93.0863 34.7433 93.378 34.7498C93.756 34.7698 94.2838 34.7798 94.9614 34.7798C95.6114 34.7798 96.1215 34.7637 96.4919 34.7314C96.772 34.7304 97.0444 34.6391 97.2686 34.471C97.3442 34.3873 97.3982 34.2865 97.4259 34.1772C97.4536 34.068 97.4542 33.9536 97.4276 33.844C97.3598 33.4583 97.2596 33.079 97.128 32.7101L89.1694 9.89231L89.1602 9.87387ZM64.9595 18.895C64.7884 19.434 64.5083 19.9321 64.1367 20.3585C63.7565 20.7801 63.2829 21.1069 62.7538 21.3127C62.0759 21.557 61.3582 21.6719 60.638 21.6515H57.0609V12.8425H60.4951C61.0287 12.8414 61.5617 12.8784 62.09 12.9531C62.6114 13.0299 63.1121 13.2101 63.5628 13.4832C64.067 13.8046 64.4761 14.255 64.7475 14.7878C65.0919 15.4844 65.2567 16.2561 65.2269 17.0327C65.2324 17.6582 65.1382 18.2806 64.948 18.8765L64.9595 18.895ZM69.0276 11.5794C68.4526 10.9331 67.7625 10.3993 66.9924 10.0053C66.2517 9.61051 65.4586 9.32336 64.6369 9.15247C63.9782 9.01664 63.3127 8.91662 62.6432 8.85284C62.0877 8.80674 61.5046 8.78139 60.8892 8.78139H53.5737C53.3377 8.77109 53.102 8.80752 52.8801 8.88861C52.6582 8.96969 52.4545 9.09383 52.2807 9.25388C51.9534 9.56119 51.7898 10.0321 51.7898 10.6667V34.0008C51.7884 34.1314 51.8306 34.2587 51.9096 34.3626C52.0214 34.4892 52.1682 34.5798 52.3314 34.6231C52.5959 34.703 52.8677 34.7562 53.1427 34.7821C53.5652 34.8278 53.99 34.8486 54.415 34.8443C54.8437 34.848 55.2724 34.8272 55.6988 34.7821C55.9707 34.7556 56.2394 34.7024 56.5008 34.6231C56.6659 34.5779 56.8151 34.4878 56.9318 34.3626C57.0155 34.2606 57.0611 34.1327 57.0609 34.0008V25.7218H60.4167C61.9253 25.75 63.4293 25.5471 64.8766 25.1203C66.0534 24.7664 67.1426 24.1688 68.0734 23.3663C68.9531 22.5917 69.6364 21.6193 70.067 20.5291C70.5459 19.2969 70.7807 17.9834 70.7585 16.6616C70.7716 15.6911 70.6228 14.7252 70.3183 13.8036C70.0412 12.9848 69.6049 12.2289 69.0345 11.5794H69.0276Z" fill="white"/>
</svg>
